<svg width="100" height="29" viewBox="0 0 100 29" fill="none" xmlns="http://www.w3.org/2000/svg">
<g clip-path="url(#clip0_2356_3326)">
<path d="M78.7439 11.7231H76.1157V29.2391H78.7439V11.7231Z" fill="#404040"/>
<path d="M97.2504 11.7231V20.9065L94.3594 11.7231H91.7312V29.2391H94.3594V20.0623L97.2504 29.2391H99.8786V11.7231H97.2504Z" fill="#404040"/>
<path d="M41.5605 11.7231H39.6759C37.8617 11.7231 36.3938 13.1989 36.3938 15.0227V25.9331C36.3938 27.7569 37.8617 29.2327 39.6759 29.2327H41.5605C43.3746 29.2327 44.8425 27.7569 44.8425 25.9331V15.0227C44.8425 13.1989 43.3746 11.7231 41.5605 11.7231ZM41.9451 25.7205C41.9451 26.3391 41.4451 26.8354 40.8361 26.8354H40.3874C39.772 26.8354 39.2784 26.3327 39.2784 25.7205V15.2418C39.2784 14.6231 39.7784 14.1269 40.3874 14.1269H40.8361C41.4515 14.1269 41.9451 14.6296 41.9451 15.2418V25.7205Z" fill="#404040"/>
<path d="M86.2604 11.7231H84.3758C82.5617 11.7231 81.0938 13.1989 81.0938 15.0227V25.9331C81.0938 27.7569 82.5617 29.2327 84.3758 29.2327H86.2604C88.0745 29.2327 89.5425 27.7569 89.5425 25.9331V15.0227C89.5425 13.1989 88.0745 11.7231 86.2604 11.7231ZM86.6514 25.7205C86.6514 26.3391 86.1514 26.8354 85.5425 26.8354H85.0938C84.4784 26.8354 83.9848 26.3327 83.9848 25.7205V15.2418C83.9848 14.6231 84.4848 14.1269 85.0938 14.1269H85.5425C86.1579 14.1269 86.6514 14.6296 86.6514 15.2418V25.7205Z" fill="#404040"/>
<path d="M31.6983 19.7519C31.6983 19.7519 28.9483 18.1344 28.9483 17.0775V15.0475C28.9483 14.3257 29.5637 13.9326 30.2817 13.9326C30.9996 13.9326 31.5381 14.3257 31.5381 15.0475V17.3417H34.3009V14.3064C34.3009 12.8628 33.1342 11.6899 31.6983 11.6899H28.8714C27.4355 11.6899 26.2689 12.8628 26.2689 14.3064V17.0775C26.2689 17.0775 26.2689 19.4362 29.1278 20.9893C29.1278 20.9893 31.5381 22.4522 31.5381 23.5864V25.8806C31.5381 26.6024 30.9996 26.9955 30.2817 26.9955C29.5637 26.9955 28.9483 26.6024 28.9483 25.8806V23.8506H26.2625V26.6217C26.2625 28.0653 27.4291 29.2382 28.865 29.2382H31.6919C33.1278 29.2382 34.2945 28.0653 34.2945 26.6217V23.5864C34.2945 23.5864 34.4932 21.5048 31.6919 19.7519H31.6983Z" fill="#404040"/>
<path d="M5.12824 23.5874V25.8816C5.12824 26.6034 4.61542 26.9965 3.93593 26.9965C3.25644 26.9965 2.67311 26.6034 2.67311 25.8816V24.7345H0.121826V25.9783C0.121826 28.15 1.84618 29.2391 3.21157 29.2391H5.28208C6.64747 29.2391 7.75644 28.0663 7.75644 26.6227V11.7231H5.12824V23.5809V23.5874Z" fill="#1BA74E"/>
<path d="M61.3193 11.8835V25.8809C61.3193 26.6027 60.7809 26.9958 60.0629 26.9958C59.345 26.9958 58.7296 26.6027 58.7296 25.8809V11.8835H56.0437V26.622C56.0437 28.0655 57.2104 29.2384 58.6463 29.2384H61.4732C62.9091 29.2384 64.0758 28.0655 64.0758 26.622V11.8835" fill="#404040"/>
<path d="M15.9732 11.7231V19.16H13.1719V11.7231H10.5437V29.2391H13.1719V21.8023H15.9732V29.2391H18.6014V11.7231H15.9732Z" fill="#1BA74E"/>
<path d="M49.7561 26.758V11.7231H47.1343V29.2391H47.5574H54.4292V26.758H49.7561Z" fill="#404040"/>
<path d="M74.0826 11.7231H71.2428H68.6146H65.7749V14.2107H68.6146V29.2391H71.2428V14.2107H74.0826V11.7231Z" fill="#404040"/>
<path d="M6.20559 0.295898V3.87256C6.20559 4.83279 5.64149 5.37412 4.77611 5.37412C3.91072 5.37412 3.35303 4.89723 3.35303 4.1239H3.96841C3.96841 4.54923 4.31457 4.8199 4.78251 4.8199C5.30175 4.8199 5.59021 4.49768 5.59021 3.87256V0.295898H6.21841H6.20559Z" fill="black"/>
<path d="M7.1687 3.4472C7.1687 2.27431 7.8546 1.50098 8.87383 1.50098C9.89306 1.50098 10.5661 2.27431 10.5661 3.4472C10.5661 4.62009 9.88665 5.38698 8.87383 5.38698C7.86101 5.38698 7.1687 4.62009 7.1687 3.4472ZM9.97639 3.4472C9.97639 2.69964 9.62383 2.02942 8.87383 2.02942C8.12383 2.02942 7.75844 2.69964 7.75844 3.4472C7.75844 4.19475 8.11101 4.85853 8.87383 4.85853C9.63665 4.85853 9.97639 4.19475 9.97639 3.4472Z" fill="black"/>
<path d="M13.8214 1.55307H14.4047V5.31019H13.8214V4.67219H13.7829C13.6034 5.05241 13.238 5.3553 12.6739 5.3553C11.9624 5.3553 11.4624 4.8913 11.4624 3.93752V1.54663H12.0521V3.89241C12.0521 4.43374 12.3919 4.78174 12.8662 4.78174C13.2893 4.78174 13.8214 4.46596 13.8214 3.76352V1.54663V1.55307Z" fill="black"/>
<path d="M15.4688 1.55297H16.0393V2.12652H16.0778C16.2124 1.7463 16.6034 1.48853 17.0393 1.48853C17.1291 1.48853 17.2829 1.49497 17.347 1.50141V2.10075C17.3086 2.08786 17.1419 2.06208 16.988 2.06208C16.4496 2.06208 16.0521 2.43586 16.0521 2.93853V5.30364H15.4624V1.54653L15.4688 1.55297Z" fill="black"/>
<path d="M18.6395 5.30964H18.0498V1.55253H18.6203V2.13898H18.6716C18.8511 1.75875 19.1972 1.50098 19.7678 1.50098C20.5242 1.50098 21.0306 1.96497 21.0306 2.91875V5.30964H20.4408V2.96386C20.4408 2.38386 20.1267 2.03586 19.5947 2.03586C19.0626 2.03586 18.6524 2.4032 18.6524 3.05409V5.30964H18.6395Z" fill="black"/>
<path d="M23.3101 3.13786C23.5473 3.11853 24.1563 3.08631 24.3229 3.07986V2.77698C24.3229 2.30009 24.0409 2.02298 23.4768 2.02298C23.0024 2.02298 22.7204 2.24209 22.637 2.52564H22.0152C22.0921 1.92631 22.6755 1.50098 23.5024 1.50098C23.9896 1.50098 24.9063 1.6492 24.9063 2.82853V5.30964H24.3229V4.80053H24.2973C24.1755 5.05831 23.8293 5.39987 23.1819 5.39987C22.4704 5.39987 21.9062 4.97453 21.9062 4.24631C21.9062 3.38275 22.6627 3.18942 23.3101 3.13786ZM23.2845 4.86497C23.9511 4.86497 24.3229 4.41386 24.3229 3.94342V3.5632L23.3806 3.63409C22.8421 3.66631 22.496 3.85964 22.496 4.27209C22.496 4.68453 22.8293 4.86497 23.278 4.86497H23.2845Z" fill="black"/>
<path d="M26.5646 5.30968H25.9749V0.295898H26.5646V5.30968Z" fill="black"/>
<path d="M29.3218 3.4472C29.3218 2.27431 30.0077 1.50098 31.0269 1.50098C32.0461 1.50098 32.7192 2.27431 32.7192 3.4472C32.7192 4.62009 32.0397 5.38698 31.0269 5.38698C30.0141 5.38698 29.3218 4.62009 29.3218 3.4472ZM32.1359 3.4472C32.1359 2.69964 31.7833 2.02942 31.0333 2.02942C30.2833 2.02942 29.9179 2.69964 29.9179 3.4472C29.9179 4.19475 30.2705 4.85853 31.0333 4.85853C31.7961 4.85853 32.1359 4.19475 32.1359 3.4472Z" fill="black"/>
<path d="M35.2878 2.04925H34.4609V5.31014H33.8647V2.04925H33.2686V1.55302H33.8647V1.04391C33.8647 0.431689 34.2686 0.0708008 34.9352 0.0708008C35.0827 0.0708008 35.2493 0.0901325 35.3775 0.109466V0.644356C35.2557 0.625023 35.1403 0.618578 35.0698 0.618578C34.6596 0.618578 34.4737 0.792579 34.4737 1.17925V1.55947H35.3006V2.05569L35.2878 2.04925Z" fill="black"/>
<path d="M74.9179 0.77932C74.2576 0.77932 73.8217 1.12732 73.8217 1.60421C73.8217 2.13266 74.4051 2.32599 74.7833 2.42265L75.2768 2.55799C75.8153 2.69332 76.6871 3.0091 76.6871 3.94354C76.6871 4.76199 76.0333 5.39999 74.873 5.39999C73.7961 5.39999 73.1294 4.83932 73.0781 4.00799H73.7127C73.7704 4.56866 74.2833 4.83288 74.8794 4.83288C75.5653 4.83288 76.0845 4.47843 76.0845 3.93065C76.0845 3.44732 75.623 3.26043 75.0974 3.10577L74.482 2.93821C73.6999 2.71266 73.2127 2.30665 73.2127 1.62999C73.2127 0.785765 73.9627 0.225098 74.9243 0.225098C75.8858 0.225098 76.5845 0.79221 76.6102 1.55265H76.0012C75.9435 1.06288 75.5012 0.77932 74.8986 0.77932H74.9179Z" fill="black"/>
<path d="M77.4375 3.4472C77.4375 2.27431 78.1234 1.50098 79.1426 1.50098C80.1619 1.50098 80.8349 2.27431 80.8349 3.4472C80.8349 4.62009 80.1555 5.38698 79.1426 5.38698C78.1298 5.38698 77.4375 4.62009 77.4375 3.4472ZM80.2452 3.4472C80.2452 2.69964 79.8926 2.02942 79.1426 2.02942C78.3926 2.02942 78.0272 2.69964 78.0272 3.4472C78.0272 4.19475 78.3798 4.85853 79.1426 4.85853C79.9055 4.85853 80.2452 4.19475 80.2452 3.4472Z" fill="black"/>
<path d="M82.3209 5.30968H81.7312V0.295898H82.3209V5.30968Z" fill="black"/>
<path d="M85.7401 1.55307H86.3234V5.31019H85.7401V4.67219H85.7016C85.5221 5.05241 85.1567 5.3553 84.5926 5.3553C83.8811 5.3553 83.3811 4.8913 83.3811 3.93752V1.54663H83.9708V3.89241C83.9708 4.43374 84.3106 4.78174 84.7849 4.78174C85.208 4.78174 85.7401 4.46596 85.7401 3.76352V1.54663V1.55307Z" fill="black"/>
<path d="M89.0173 2.04981H88.2352V4.22804C88.2352 4.71137 88.4724 4.7887 88.7224 4.7887C88.8314 4.7887 88.9852 4.78226 89.075 4.77581V5.33003C88.9852 5.34292 88.8314 5.35581 88.6647 5.35581C88.1711 5.35581 87.6391 5.04648 87.6391 4.3827V2.04981H87.075V1.55359H87.6391V0.651367H88.2352V1.55359H89.0173V2.04981Z" fill="black"/>
<path d="M89.8999 1.55298H90.4896V5.31009H89.8999V1.55298Z" fill="black"/>
<path d="M91.3655 3.4472C91.3655 2.27431 92.0514 1.50098 93.0706 1.50098C94.0898 1.50098 94.7629 2.27431 94.7629 3.4472C94.7629 4.62009 94.0834 5.38698 93.0706 5.38698C92.0578 5.38698 91.3655 4.62009 91.3655 3.4472ZM94.1732 3.4472C94.1732 2.69964 93.8206 2.02942 93.0706 2.02942C92.3206 2.02942 91.9552 2.69964 91.9552 3.4472C91.9552 4.19475 92.3078 4.85853 93.0706 4.85853C93.8334 4.85853 94.1732 4.19475 94.1732 3.4472Z" fill="black"/>
<path d="M96.2521 5.30964H95.6624V1.55253H96.2329V2.13898H96.2841C96.4636 1.75875 96.8098 1.50098 97.3803 1.50098C98.1367 1.50098 98.6431 1.96497 98.6431 2.91875V5.30964H98.0534V2.96386C98.0534 2.38386 97.7393 2.03586 97.2072 2.03586C96.6752 2.03586 96.2649 2.4032 96.2649 3.05409V5.30964H96.2521Z" fill="black"/>
<path d="M91.4928 0.295898H90.9031V0.888789H91.4928V0.295898Z" fill="#177D3C"/>
<path d="M41.9419 0.295898V5.41279H41.2752V3.09279H38.6855V5.41279H38.0188V0.295898H38.6855V2.53856H41.2752V0.295898H41.9419Z" fill="black"/>
<path d="M43.0689 2.30597C43.2356 1.99664 43.4599 1.75175 43.7484 1.58419C44.0369 1.41019 44.3574 1.32642 44.7163 1.32642C45.0753 1.32642 45.3702 1.40375 45.6266 1.55197C45.883 1.70664 46.0753 1.89353 46.2035 2.12553V1.39086H46.8766V5.41219H46.2035V4.66464C46.0753 4.89664 45.8766 5.09642 45.6138 5.25108C45.351 5.40575 45.0497 5.48308 44.7035 5.48308C44.3574 5.48308 44.024 5.39286 43.742 5.21886C43.4535 5.04486 43.2292 4.79353 43.0625 4.47775C42.8958 4.16197 42.8125 3.80108 42.8125 3.38864C42.8125 2.97619 42.8958 2.61531 43.0625 2.30597H43.0689ZM46.024 2.60242C45.9022 2.37686 45.7356 2.20286 45.5304 2.08686C45.3253 1.96442 45.0946 1.90641 44.851 1.90641C44.6074 1.90641 44.3766 1.96441 44.1715 2.08041C43.9663 2.19641 43.8061 2.37041 43.6843 2.59597C43.5625 2.82153 43.5048 3.08575 43.5048 3.38864C43.5048 3.69153 43.5625 3.96219 43.6843 4.19419C43.8061 4.41975 43.9663 4.59375 44.1715 4.71619C44.3766 4.83864 44.601 4.89664 44.851 4.89664C45.101 4.89664 45.3253 4.83864 45.5304 4.71619C45.7356 4.59375 45.9022 4.41975 46.024 4.19419C46.1458 3.96864 46.2035 3.70442 46.2035 3.39508C46.2035 3.08575 46.1458 2.82797 46.024 2.60242Z" fill="black"/>
<path d="M49.1666 1.5073C49.3846 1.37841 49.6474 1.31396 49.9615 1.31396V2.00352H49.7884C49.0448 2.00352 48.673 2.40952 48.673 3.22152V5.40619H48.0063V1.38485H48.673V2.03574C48.7884 1.80374 48.9551 1.62974 49.173 1.50085L49.1666 1.5073Z" fill="black"/>
<path d="M56.3725 1.5133C56.6161 1.64219 56.8084 1.83553 56.9495 2.09975C57.0905 2.35752 57.161 2.6733 57.161 3.04708V5.41864H56.5072V3.14375C56.5072 2.74419 56.411 2.43486 56.2123 2.22219C56.0136 2.00953 55.7507 1.89997 55.411 1.89997C55.0713 1.89997 54.7892 2.00953 54.5841 2.23508C54.3789 2.46064 54.2764 2.77642 54.2764 3.20175V5.41864H53.6225V3.14375C53.6225 2.74419 53.5264 2.43486 53.3277 2.22219C53.1289 2.00953 52.8661 1.89997 52.5264 1.89997C52.1866 1.89997 51.9046 2.00953 51.6995 2.23508C51.4943 2.46064 51.3918 2.77642 51.3918 3.20175V5.41864H50.7251V1.3973H51.3918V1.9773C51.52 1.76464 51.6995 1.60353 51.9238 1.49397C52.1418 1.38441 52.3918 1.32642 52.6546 1.32642C52.9879 1.32642 53.2892 1.40375 53.5456 1.55197C53.802 1.70664 53.9943 1.92575 54.1225 2.22219C54.2379 1.93864 54.4174 1.71953 54.6802 1.56486C54.9366 1.41019 55.2251 1.33286 55.5392 1.33286C55.8533 1.33286 56.1289 1.3973 56.3725 1.52619V1.5133Z" fill="black"/>
<path d="M58.9744 5.21886C58.6731 5.04486 58.4295 4.80642 58.2564 4.49064C58.0833 4.17486 58 3.80753 58 3.39508C58 2.98264 58.0897 2.62175 58.2692 2.30597C58.4487 1.99019 58.6859 1.7453 58.9936 1.57775C59.3013 1.41019 59.641 1.32642 60.0256 1.32642C60.4103 1.32642 60.75 1.41019 61.0577 1.57775C61.3654 1.7453 61.609 1.99019 61.782 2.29953C61.9615 2.6153 62.0513 2.97619 62.0513 3.39508C62.0513 3.81397 61.9615 4.17486 61.7756 4.49064C61.5962 4.80642 61.3462 5.0513 61.032 5.21886C60.7179 5.39286 60.3782 5.47664 59.9936 5.47664C59.609 5.47664 59.282 5.39286 58.9744 5.21886ZM60.6603 4.72264C60.8718 4.61308 61.0385 4.43908 61.1667 4.21353C61.2949 3.98797 61.359 3.7173 61.359 3.39508C61.359 3.07286 61.2949 2.79575 61.1667 2.57019C61.0385 2.34464 60.8782 2.17708 60.6731 2.06753C60.4679 1.95797 60.25 1.89997 60.0064 1.89997C59.7628 1.89997 59.5385 1.95797 59.3397 2.06753C59.1346 2.17708 58.9744 2.34464 58.8526 2.57019C58.7308 2.79575 58.6731 3.06642 58.6731 3.39508C58.6731 3.72375 58.7308 4.00086 58.8526 4.22642C58.9744 4.45197 59.1282 4.61953 59.3333 4.72908C59.532 4.83864 59.75 4.89664 59.9872 4.89664C60.2244 4.89664 60.4487 4.83864 60.6603 4.72908V4.72264Z" fill="black"/>
<path d="M66.0437 1.75863C66.3449 2.05508 66.4988 2.48041 66.4988 3.04108V5.41263H65.845V3.13774C65.845 2.73819 65.7424 2.42885 65.5437 2.21619C65.3449 2.00352 65.0693 1.89396 64.7296 1.89396C64.3898 1.89396 64.1014 2.00352 63.8962 2.22263C63.6911 2.44174 63.5885 2.76396 63.5885 3.18285V5.40619H62.9219V1.38485H63.5885V1.95841C63.7167 1.75219 63.8962 1.59107 64.127 1.48152C64.3578 1.37196 64.6014 1.31396 64.877 1.31396C65.3642 1.31396 65.7552 1.46219 66.0565 1.75863H66.0437Z" fill="black"/>
<path d="M71.0324 1.39087L68.6222 7.30687H67.9363L68.7248 5.36709L67.1094 1.39087H67.8466L69.103 4.65176L70.3466 1.39087H71.0324Z" fill="black"/>
</g>
<defs>
<clipPath id="clip0_2356_3326">
<rect width="100" height="29" fill="white"/>
</clipPath>
</defs>
</svg>
