<svg width="125" height="36" viewBox="0 0 125 36" fill="none" xmlns="http://www.w3.org/2000/svg">
<g clip-path="url(#clip0_1914_13595)">
<path d="M98.4298 14.5527H95.1445V36.2967H98.4298V14.5527Z" fill="#FDFDFD"/>
<path d="M121.563 14.5527V25.9527L117.949 14.5527H114.664V36.2967H117.949V24.9047L121.563 36.2967H124.848V14.5527H121.563Z" fill="#FDFDFD"/>
<path d="M51.9505 14.5527H49.5948C47.3271 14.5527 45.4922 16.3847 45.4922 18.6487V32.1927C45.4922 34.4567 47.3271 36.2887 49.5948 36.2887H51.9505C54.2182 36.2887 56.0531 34.4567 56.0531 32.1927V18.6487C56.0531 16.3847 54.2182 14.5527 51.9505 14.5527ZM52.4313 31.9287C52.4313 32.6967 51.8063 33.3127 51.0451 33.3127H50.4842C49.7149 33.3127 49.098 32.6887 49.098 31.9287V18.9207C49.098 18.1527 49.723 17.5367 50.4842 17.5367H51.0451C51.8143 17.5367 52.4313 18.1607 52.4313 18.9207V31.9287Z" fill="#FDFDFD"/>
<path d="M107.826 14.5527H105.47C103.202 14.5527 101.367 16.3847 101.367 18.6487V32.1927C101.367 34.4567 103.202 36.2887 105.47 36.2887H107.826C110.093 36.2887 111.928 34.4567 111.928 32.1927V18.6487C111.928 16.3847 110.093 14.5527 107.826 14.5527ZM108.314 31.9287C108.314 32.6967 107.689 33.3127 106.928 33.3127H106.367C105.598 33.3127 104.981 32.6887 104.981 31.9287V18.9207C104.981 18.1527 105.606 17.5367 106.367 17.5367H106.928C107.697 17.5367 108.314 18.1607 108.314 18.9207V31.9287Z" fill="#FDFDFD"/>
<path d="M39.623 24.5197C39.623 24.5197 36.1855 22.5117 36.1855 21.1997V18.6797C36.1855 17.7837 36.9547 17.2957 37.8522 17.2957C38.7496 17.2957 39.4227 17.7837 39.4227 18.6797V21.5277H42.8762V17.7597C42.8762 15.9677 41.4179 14.5117 39.623 14.5117H36.0893C34.2945 14.5117 32.8361 15.9677 32.8361 17.7597V21.1997C32.8361 21.1997 32.8361 24.1277 36.4099 26.0557C36.4099 26.0557 39.4227 27.8717 39.4227 29.2797V32.1277C39.4227 33.0237 38.7496 33.5117 37.8522 33.5117C36.9547 33.5117 36.1855 33.0237 36.1855 32.1277V29.6077H32.8281V33.0477C32.8281 34.8397 34.2865 36.2957 36.0813 36.2957H39.615C41.4099 36.2957 42.8682 34.8397 42.8682 33.0477V29.2797C42.8682 29.2797 43.1166 26.6957 39.615 24.5197H39.623Z" fill="#FDFDFD"/>
<path d="M6.41036 29.2807V32.1287C6.41036 33.0247 5.76933 33.5127 4.91997 33.5127C4.07061 33.5127 3.34145 33.0247 3.34145 32.1287V30.7047H0.152344V32.2487C0.152344 34.9447 2.30779 36.2967 4.01452 36.2967H6.60266C8.30939 36.2967 9.69561 34.8407 9.69561 33.0487V14.5527H6.41036V29.2727V29.2807Z" fill="#FDFDFD"/>
<path d="M76.6492 14.752V32.128C76.6492 33.024 75.9762 33.512 75.0787 33.512C74.1813 33.512 73.4121 33.024 73.4121 32.128V14.752H70.0547V33.0479C70.0547 34.8399 71.513 36.296 73.3079 36.296H76.8415C78.6364 36.296 80.0948 34.8399 80.0948 33.0479V14.752" fill="#FDFDFD"/>
<path d="M19.9665 14.5527V23.7847H16.4649V14.5527H13.1797V36.2967H16.4649V27.0647H19.9665V36.2967H23.2518V14.5527H19.9665Z" fill="#FDFDFD"/>
<path d="M62.1952 33.2167V14.5527H58.918V36.2967H59.4468H68.0366V33.2167H62.1952Z" fill="#FDFDFD"/>
<path d="M92.6034 14.5527H89.0537H85.7684H82.2188V17.6407H85.7684V36.2967H89.0537V17.6407H92.6034V14.5527Z" fill="#FDFDFD"/>
<path d="M7.75711 0.367188V4.80719C7.75711 5.99919 7.05198 6.67119 5.97025 6.67119C4.88852 6.67119 4.19141 6.07919 4.19141 5.11919H4.96064C4.96064 5.64719 5.39333 5.98319 5.97826 5.98319C6.6273 5.98319 6.98788 5.58319 6.98788 4.80719V0.367188H7.77314H7.75711Z" fill="#FDFDFD"/>
<path d="M8.96094 4.27928C8.96094 2.82328 9.81831 1.86328 11.0923 1.86328C12.3664 1.86328 13.2077 2.82328 13.2077 4.27928C13.2077 5.73528 12.3584 6.68728 11.0923 6.68728C9.82632 6.68728 8.96094 5.73528 8.96094 4.27928ZM12.4706 4.27928C12.4706 3.35128 12.0298 2.51928 11.0923 2.51928C10.1548 2.51928 9.69812 3.35128 9.69812 4.27928C9.69812 5.20728 10.1388 6.03128 11.0923 6.03128C12.0459 6.03128 12.4706 5.20728 12.4706 4.27928Z" fill="#FDFDFD"/>
<path d="M17.2768 1.92792H18.006V6.59192H17.2768V5.79992H17.2288C17.0044 6.27192 16.5477 6.64792 15.8425 6.64792C14.9531 6.64792 14.3281 6.07192 14.3281 4.88792V1.91992H15.0653V4.83192C15.0653 5.50392 15.49 5.93592 16.0829 5.93592C16.6118 5.93592 17.2768 5.54392 17.2768 4.67192V1.91992V1.92792Z" fill="#FDFDFD"/>
<path d="M19.3361 1.92766H20.0493V2.63965H20.0974C20.2656 2.16765 20.7544 1.84766 21.2993 1.84766C21.4115 1.84766 21.6038 1.85566 21.6839 1.86366V2.60765C21.6358 2.59165 21.4275 2.55966 21.2352 2.55966C20.5621 2.55966 20.0653 3.02366 20.0653 3.64766V6.58365H19.3281V1.91966L19.3361 1.92766Z" fill="#FDFDFD"/>
<path d="M23.2997 6.59128H22.5625V1.92728H23.2756V2.65528H23.3397C23.5641 2.18328 23.9968 1.86328 24.7099 1.86328C25.6554 1.86328 26.2885 2.43928 26.2885 3.62328V6.59128H25.5513V3.67928C25.5513 2.95928 25.1587 2.52728 24.4936 2.52728C23.8285 2.52728 23.3157 2.98328 23.3157 3.79128V6.59128H23.2997Z" fill="#FDFDFD"/>
<path d="M29.1376 3.89528C29.4341 3.87128 30.1953 3.83128 30.4036 3.82328V3.44728C30.4036 2.85528 30.0511 2.51128 29.346 2.51128C28.753 2.51128 28.4004 2.78328 28.2963 3.13528H27.519C27.6152 2.39128 28.3444 1.86328 29.378 1.86328C29.987 1.86328 31.1328 2.04728 31.1328 3.51128V6.59128H30.4036V5.95928H30.3716C30.2194 6.27928 29.7867 6.70328 28.9774 6.70328C28.0879 6.70328 27.3828 6.17528 27.3828 5.27128C27.3828 4.19928 28.3283 3.95928 29.1376 3.89528ZM29.1056 6.03928C29.9389 6.03928 30.4036 5.47928 30.4036 4.89528V4.42328L29.2258 4.51128C28.5527 4.55128 28.12 4.79128 28.12 5.30328C28.12 5.81528 28.5367 6.03928 29.0976 6.03928H29.1056Z" fill="#FDFDFD"/>
<path d="M33.2059 6.59119H32.4688V0.367188H33.2059V6.59119Z" fill="#FDFDFD"/>
<path d="M36.6523 4.27928C36.6523 2.82328 37.5097 1.86328 38.7838 1.86328C40.0578 1.86328 40.8991 2.82328 40.8991 4.27928C40.8991 5.73528 40.0498 6.68728 38.7838 6.68728C37.5177 6.68728 36.6523 5.73528 36.6523 4.27928ZM40.17 4.27928C40.17 3.35128 39.7293 2.51928 38.7918 2.51928C37.8543 2.51928 37.3975 3.35128 37.3975 4.27928C37.3975 5.20728 37.8382 6.03128 38.7918 6.03128C39.7453 6.03128 40.17 5.20728 40.17 4.27928Z" fill="#FDFDFD"/>
<path d="M44.11 2.54389H43.0763V6.59189H42.3311V2.54389H41.5859V1.92789H42.3311V1.29589C42.3311 0.535889 42.8359 0.0878906 43.6693 0.0878906C43.8536 0.0878906 44.0619 0.111889 44.2222 0.135889V0.79989C44.0699 0.77589 43.9257 0.767889 43.8375 0.767889C43.3247 0.767889 43.0923 0.983892 43.0923 1.46389V1.93589H44.126V2.55189L44.11 2.54389Z" fill="#FDFDFD"/>
<path d="M93.6473 0.967297C92.822 0.967297 92.2771 1.3993 92.2771 1.9913C92.2771 2.6473 93.0063 2.8873 93.4791 3.0073L94.096 3.1753C94.7691 3.3433 95.8589 3.7353 95.8589 4.8953C95.8589 5.9113 95.0416 6.7033 93.5912 6.7033C92.2451 6.7033 91.4118 6.0073 91.3477 4.9753H92.1409C92.213 5.6713 92.8541 5.9993 93.5993 5.9993C94.4566 5.9993 95.1057 5.5593 95.1057 4.8793C95.1057 4.2793 94.5287 4.0473 93.8717 3.8553L93.1025 3.6473C92.1249 3.3673 91.5159 2.8633 91.5159 2.0233C91.5159 0.975297 92.4534 0.279297 93.6554 0.279297C94.8573 0.279297 95.7307 0.983298 95.7627 1.9273H95.0015C94.9294 1.3193 94.3765 0.967297 93.6233 0.967297H93.6473Z" fill="#FDFDFD"/>
<path d="M96.7969 4.27928C96.7969 2.82328 97.6542 1.86328 98.9283 1.86328C100.202 1.86328 101.044 2.82328 101.044 4.27928C101.044 5.73528 100.194 6.68728 98.9283 6.68728C97.6623 6.68728 96.7969 5.73528 96.7969 4.27928ZM100.306 4.27928C100.306 3.35128 99.8658 2.51928 98.9283 2.51928C97.9908 2.51928 97.5341 3.35128 97.5341 4.27928C97.5341 5.20728 97.9748 6.03128 98.9283 6.03128C99.8818 6.03128 100.306 5.20728 100.306 4.27928Z" fill="#FDFDFD"/>
<path d="M102.901 6.59119H102.164V0.367188H102.901V6.59119Z" fill="#FDFDFD"/>
<path d="M107.175 1.92792H107.904V6.59192H107.175V5.79992H107.127C106.903 6.27192 106.446 6.64792 105.741 6.64792C104.852 6.64792 104.227 6.07192 104.227 4.88792V1.91992H104.964V4.83192C104.964 5.50392 105.388 5.93592 105.981 5.93592C106.51 5.93592 107.175 5.54392 107.175 4.67192V1.91992V1.92792Z" fill="#FDFDFD"/>
<path d="M111.272 2.5446H110.294V5.2486C110.294 5.8486 110.591 5.94459 110.903 5.94459C111.039 5.94459 111.232 5.93659 111.344 5.92859V6.6166C111.232 6.6326 111.039 6.6486 110.831 6.6486C110.214 6.6486 109.549 6.26459 109.549 5.44059V2.5446H108.844V1.92859H109.549V0.808594H110.294V1.92859H111.272V2.5446Z" fill="#FDFDFD"/>
<path d="M112.375 1.92773H113.112V6.59174H112.375V1.92773Z" fill="#FDFDFD"/>
<path d="M114.207 4.27928C114.207 2.82328 115.064 1.86328 116.338 1.86328C117.612 1.86328 118.454 2.82328 118.454 4.27928C118.454 5.73528 117.604 6.68728 116.338 6.68728C115.072 6.68728 114.207 5.73528 114.207 4.27928ZM117.717 4.27928C117.717 3.35128 117.276 2.51928 116.338 2.51928C115.401 2.51928 114.944 3.35128 114.944 4.27928C114.944 5.20728 115.385 6.03128 116.338 6.03128C117.292 6.03128 117.717 5.20728 117.717 4.27928Z" fill="#FDFDFD"/>
<path d="M120.315 6.59128H119.578V1.92728H120.291V2.65528H120.355C120.58 2.18328 121.012 1.86328 121.726 1.86328C122.671 1.86328 123.304 2.43928 123.304 3.62328V6.59128H122.567V3.67928C122.567 2.95928 122.174 2.52728 121.509 2.52728C120.844 2.52728 120.331 2.98328 120.331 3.79128V6.59128H120.315Z" fill="#FDFDFD"/>
<path d="M114.366 0.367188H113.629V1.10319H114.366V0.367188Z" fill="#FDFDFD"/>
<path d="M52.4273 0.367188V6.71919H51.594V3.83919H48.3568V6.71919H47.5234V0.367188H48.3568V3.15119H51.594V0.367188H52.4273Z" fill="#FDFDFD"/>
<path d="M53.8361 2.86248C54.0445 2.47848 54.3249 2.17448 54.6855 1.96648C55.0461 1.75048 55.4467 1.64648 55.8954 1.64648C56.3442 1.64648 56.7127 1.74248 57.0333 1.92648C57.3538 2.11848 57.5942 2.35048 57.7544 2.63848V1.72648H58.5958V6.71848H57.7544V5.79048C57.5942 6.07849 57.3458 6.32649 57.0172 6.51849C56.6887 6.71048 56.3121 6.80648 55.8794 6.80648C55.4467 6.80648 55.03 6.69448 54.6775 6.47848C54.3169 6.26248 54.0365 5.95048 53.8281 5.55848C53.6198 5.16648 53.5156 4.71848 53.5156 4.20648C53.5156 3.69448 53.6198 3.24648 53.8281 2.86248H53.8361ZM57.5301 3.23048C57.3778 2.95048 57.1695 2.73448 56.9131 2.59048C56.6566 2.43848 56.3682 2.36648 56.0637 2.36648C55.7592 2.36648 55.4708 2.43848 55.2143 2.58248C54.9579 2.72648 54.7576 2.94248 54.6054 3.22248C54.4531 3.50248 54.381 3.83048 54.381 4.20648C54.381 4.58248 54.4531 4.91848 54.6054 5.20648C54.7576 5.48648 54.9579 5.70248 55.2143 5.85448C55.4708 6.00648 55.7512 6.07848 56.0637 6.07848C56.3762 6.07848 56.6566 6.00648 56.9131 5.85448C57.1695 5.70248 57.3778 5.48648 57.5301 5.20648C57.6823 4.92648 57.7544 4.59848 57.7544 4.21448C57.7544 3.83048 57.6823 3.51048 57.5301 3.23048Z" fill="#FDFDFD"/>
<path d="M61.4581 1.87086C61.7306 1.71086 62.0591 1.63086 62.4517 1.63086V2.48686H62.2354C61.3059 2.48686 60.8411 2.99086 60.8411 3.99886V6.71086H60.0078V1.71886H60.8411V2.52686C60.9854 2.23886 61.1937 2.02286 61.4661 1.86286L61.4581 1.87086Z" fill="#FDFDFD"/>
<path d="M70.4655 1.87848C70.77 2.03848 71.0104 2.27848 71.1867 2.60648C71.363 2.92648 71.4511 3.31848 71.4511 3.78248V6.72648H70.6338V3.90248C70.6338 3.40648 70.5136 3.02248 70.2652 2.75848C70.0168 2.49448 69.6883 2.35848 69.2636 2.35848C68.8389 2.35848 68.4864 2.49448 68.23 2.77448C67.9736 3.05448 67.8454 3.44648 67.8454 3.97448V6.72648H67.028V3.90248C67.028 3.40648 66.9079 3.02248 66.6595 2.75848C66.4111 2.49448 66.0825 2.35848 65.6579 2.35848C65.2332 2.35848 64.8806 2.49448 64.6242 2.77448C64.3678 3.05448 64.2396 3.44648 64.2396 3.97448V6.72648H63.4062V1.73448H64.2396V2.45448C64.3998 2.19048 64.6242 1.99048 64.9046 1.85448C65.1771 1.71848 65.4896 1.64648 65.8181 1.64648C66.2348 1.64648 66.6114 1.74248 66.9319 1.92648C67.2524 2.11848 67.4928 2.39048 67.653 2.75848C67.7973 2.40648 68.0216 2.13448 68.3502 1.94248C68.6707 1.75048 69.0313 1.65448 69.4239 1.65448C69.8165 1.65448 70.1611 1.73448 70.4655 1.89448V1.87848Z" fill="#FDFDFD"/>
<path d="M73.7179 6.47848C73.3413 6.26248 73.0369 5.96648 72.8205 5.57448C72.6042 5.18248 72.5 4.72648 72.5 4.21448C72.5 3.70248 72.6122 3.25448 72.8365 2.86248C73.0609 2.47048 73.3574 2.16648 73.742 1.95848C74.1266 1.75048 74.5513 1.64648 75.032 1.64648C75.5128 1.64648 75.9375 1.75048 76.3221 1.95848C76.7067 2.16648 77.0112 2.47048 77.2276 2.85448C77.4519 3.24648 77.5641 3.69448 77.5641 4.21448C77.5641 4.73448 77.4519 5.18248 77.2196 5.57448C76.9952 5.96648 76.6827 6.27048 76.2901 6.47848C75.8974 6.69448 75.4728 6.79848 74.992 6.79848C74.5112 6.79848 74.1026 6.69448 73.7179 6.47848ZM75.8253 5.86248C76.0897 5.72648 76.2981 5.51048 76.4583 5.23048C76.6186 4.95048 76.6987 4.61448 76.6987 4.21448C76.6987 3.81448 76.6186 3.47048 76.4583 3.19048C76.2981 2.91048 76.0978 2.70248 75.8413 2.56648C75.5849 2.43048 75.3125 2.35848 75.008 2.35848C74.7035 2.35848 74.4231 2.43048 74.1747 2.56648C73.9183 2.70248 73.7179 2.91048 73.5657 3.19048C73.4135 3.47048 73.3413 3.80648 73.3413 4.21448C73.3413 4.62248 73.4135 4.96648 73.5657 5.24648C73.7179 5.52648 73.9103 5.73448 74.1667 5.87048C74.4151 6.00648 74.6875 6.07848 74.984 6.07848C75.2804 6.07848 75.5609 6.00648 75.8253 5.87048V5.86248Z" fill="#FDFDFD"/>
<path d="M82.5546 2.18286C82.9312 2.55086 83.1235 3.07886 83.1235 3.77486V6.71886H82.3062V3.89486C82.3062 3.39886 82.178 3.01486 81.9296 2.75086C81.6812 2.48686 81.3366 2.35086 80.912 2.35086C80.4873 2.35086 80.1267 2.48686 79.8703 2.75886C79.6139 3.03086 79.4857 3.43086 79.4857 3.95086V6.71086H78.6523V1.71886H79.4857V2.43086C79.6459 2.17486 79.8703 1.97486 80.1588 1.83886C80.4472 1.70286 80.7517 1.63086 81.0963 1.63086C81.7052 1.63086 82.194 1.81486 82.5706 2.18286H82.5546Z" fill="#FDFDFD"/>
<path d="M88.7906 1.72656L85.7777 9.07056H84.9204L85.9059 6.66256L83.8867 1.72656H84.8082L86.3787 5.77456L87.9332 1.72656H88.7906Z" fill="#FDFDFD"/>
</g>
<defs>
<clipPath id="clip0_1914_13595">
<rect width="125" height="36" fill="white"/>
</clipPath>
</defs>
</svg>
