<svg width="53" height="40" viewBox="0 0 53 40" fill="none" xmlns="http://www.w3.org/2000/svg">
<g clip-path="url(#clip0_2415_2623)">
<path d="M23.1901 39.9998C22.8856 39.9998 22.5913 39.9599 22.3098 39.8764C22.0273 39.7948 21.801 39.6873 21.6309 39.5556L21.9308 38.8843C22.0908 39.0011 22.2831 39.0976 22.5085 39.1727C22.7348 39.2478 22.9611 39.2858 23.1901 39.2858C23.3649 39.2858 23.5056 39.2672 23.6133 39.2311C23.72 39.1949 23.8 39.1448 23.8506 39.0846C23.9012 39.0243 23.926 38.9548 23.926 38.8741C23.926 38.7712 23.8865 38.6905 23.8065 38.6284C23.7264 38.5681 23.6197 38.5199 23.4882 38.481C23.3548 38.442 23.2104 38.4058 23.054 38.3706C22.8976 38.3354 22.7394 38.2946 22.583 38.2445C22.4247 38.1944 22.2794 38.1295 22.146 38.0461C22.0126 37.9645 21.9078 37.856 21.8296 37.7225C21.7523 37.588 21.7127 37.4202 21.7127 37.219C21.7127 36.9992 21.7716 36.798 21.8875 36.6163C22.0043 36.4355 22.1819 36.2899 22.4201 36.1833C22.6584 36.0748 22.9565 36.021 23.3171 36.021C23.5562 36.021 23.7936 36.0507 24.0282 36.1082C24.2627 36.1675 24.4679 36.2519 24.6417 36.3622L24.3639 37.0335C24.1937 36.9343 24.0162 36.8601 23.8359 36.811C23.6538 36.7609 23.479 36.7359 23.3125 36.7359C23.1368 36.7359 22.9969 36.7563 22.8921 36.7934C22.7872 36.8323 22.7099 36.8843 22.6602 36.9501C22.6106 37.0159 22.5867 37.0892 22.5867 37.1698C22.5867 37.2718 22.6262 37.3553 22.7062 37.4165C22.7863 37.4795 22.8911 37.5278 23.0218 37.563C23.1533 37.5982 23.2987 37.6325 23.4587 37.6678C23.6188 37.703 23.777 37.7457 23.9325 37.7967C24.0898 37.8476 24.2333 37.9135 24.3639 37.9914C24.4946 38.0702 24.6013 38.1768 24.6831 38.3103C24.7641 38.4448 24.8055 38.6098 24.8055 38.8083C24.8055 39.0243 24.7457 39.2218 24.6289 39.4017C24.5102 39.5816 24.3308 39.7262 24.0907 39.8366C23.8515 39.9451 23.5516 40.0007 23.191 40.0007L23.1901 39.9998Z" fill="#FDFDFD"/>
<path d="M27.2634 39.9998C26.9617 39.9998 26.6829 39.9516 26.429 39.8524C26.1751 39.7532 25.9525 39.6132 25.763 39.4351C25.5744 39.2552 25.4291 39.0448 25.3251 38.8018C25.2212 38.5607 25.1697 38.2974 25.1697 38.0118C25.1697 37.7262 25.2212 37.4573 25.3251 37.2172C25.4291 36.977 25.5744 36.7675 25.763 36.5876C25.9516 36.4077 26.1733 36.2686 26.4263 36.1694C26.6793 36.0711 26.9562 36.022 27.2579 36.022C27.5596 36.022 27.8365 36.0702 28.0886 36.1666C28.3415 36.2649 28.5623 36.4031 28.7518 36.583C28.9404 36.7628 29.0876 36.9733 29.1915 37.2153C29.2955 37.4564 29.347 37.7225 29.347 38.0127C29.347 38.303 29.2955 38.5626 29.1915 38.8074C29.0876 39.0503 28.9413 39.2627 28.7518 39.4416C28.5632 39.6196 28.3415 39.7597 28.0886 39.8561C27.8365 39.9525 27.5615 40.0007 27.2634 40.0007V39.9998ZM27.2579 39.2469C27.4281 39.2469 27.5854 39.2172 27.7289 39.157C27.8724 39.0967 27.9993 39.0095 28.1079 38.8983C28.2174 38.787 28.3011 38.6572 28.3609 38.5079C28.4207 38.3605 28.451 38.1936 28.451 38.0118C28.451 37.8301 28.4207 37.6632 28.3609 37.5139C28.3011 37.3646 28.2174 37.2348 28.1079 37.1235C27.9984 37.0123 27.8724 36.926 27.7289 36.8658C27.5854 36.8055 27.4281 36.7749 27.2579 36.7749C27.0877 36.7749 26.9295 36.8055 26.7823 36.8658C26.6369 36.926 26.5109 37.0123 26.4042 37.1235C26.2966 37.2348 26.2129 37.3646 26.1521 37.5139C26.0924 37.6632 26.0629 37.8282 26.0629 38.0118C26.0629 38.1954 26.0924 38.3605 26.1521 38.5079C26.2119 38.6572 26.2957 38.787 26.4042 38.8983C26.5109 39.0095 26.6369 39.0967 26.7823 39.157C26.9286 39.2172 27.0859 39.2469 27.2579 39.2469Z" fill="#FDFDFD"/>
<path d="M30.0112 39.934V36.0869H30.9008V39.2089H32.8032V39.9331H30.0112V39.934Z" fill="#FDFDFD"/>
<path d="M34.9512 39.9999C34.4093 39.9999 33.9862 39.8478 33.6808 39.5437C33.3744 39.2405 33.2227 38.8047 33.2227 38.2372V36.0879H34.1104V38.215C34.1104 38.5784 34.1849 38.8418 34.3339 39.004C34.4829 39.1682 34.6908 39.2479 34.9558 39.2479C35.2207 39.2479 35.4341 39.1672 35.5832 39.004C35.7322 38.8418 35.8067 38.5784 35.8067 38.215V36.0879H36.6733V38.2372C36.6733 38.8047 36.5215 39.2405 36.2151 39.5437C35.9106 39.8478 35.4884 39.9999 34.9503 39.9999H34.9512Z" fill="#FDFDFD"/>
<path d="M38.2675 39.934V36.8129H37.0459V36.0869H40.3723V36.8129H39.1507V39.934H38.2685H38.2675Z" fill="#FDFDFD"/>
<path d="M40.8459 39.934V36.0869H41.7355V39.934H40.8459Z" fill="#FDFDFD"/>
<path d="M44.488 39.9998C44.1871 39.9998 43.9093 39.9516 43.6545 39.8524C43.4006 39.7532 43.178 39.6132 42.9885 39.4351C42.7999 39.2552 42.6527 39.0448 42.5488 38.8018C42.4448 38.5607 42.3933 38.2974 42.3933 38.0118C42.3933 37.7262 42.4448 37.4573 42.5488 37.2172C42.6527 36.977 42.799 36.7675 42.9885 36.5876C43.1771 36.4077 43.3988 36.2686 43.6518 36.1694C43.9038 36.0711 44.1816 36.022 44.4824 36.022C44.7832 36.022 45.0611 36.0702 45.314 36.1666C45.567 36.2649 45.7878 36.4031 45.9773 36.583C46.1659 36.7628 46.3112 36.9733 46.4152 37.2153C46.5191 37.4564 46.5706 37.7225 46.5706 38.0127C46.5706 38.303 46.5191 38.5626 46.4152 38.8074C46.3112 39.0503 46.1659 39.2627 45.9773 39.4416C45.7887 39.6196 45.567 39.7597 45.314 39.8561C45.0611 39.9525 44.786 40.0007 44.487 40.0007L44.488 39.9998ZM44.4824 39.2469C44.6545 39.2469 44.8108 39.2172 44.9553 39.157C45.0979 39.0967 45.2239 39.0095 45.3334 38.8983C45.4428 38.787 45.5275 38.6572 45.5873 38.5079C45.6471 38.3605 45.6765 38.1936 45.6765 38.0118C45.6765 37.8301 45.6471 37.6632 45.5873 37.5139C45.5275 37.3646 45.4419 37.2348 45.3334 37.1235C45.2239 37.0123 45.0979 36.926 44.9553 36.8658C44.8118 36.8055 44.6545 36.7749 44.4824 36.7749C44.3104 36.7749 44.154 36.8055 44.0087 36.8658C43.8633 36.926 43.7373 37.0123 43.6297 37.1235C43.523 37.2348 43.4393 37.3646 43.3795 37.5139C43.3197 37.6632 43.2893 37.8282 43.2893 38.0118C43.2893 38.1954 43.3197 38.3605 43.3795 38.5079C43.4393 38.6572 43.523 38.787 43.6297 38.8983C43.7373 39.0095 43.8643 39.0967 44.0087 39.157C44.154 39.2172 44.3123 39.2469 44.4824 39.2469Z" fill="#FDFDFD"/>
<path d="M47.2375 39.934V36.0869H47.968L50.219 39.6744H49.8648V36.0869H50.7369V39.934H50.0065L47.7555 36.3187H48.1096V39.934H47.2375Z" fill="#FDFDFD"/>
<path d="M3.19763 32.3418L0 37.1013C0 37.1013 11.3757 44.7083 20.8186 27.7334C20.8186 27.7334 12.2809 38.1722 3.19671 32.3427L3.19763 32.3418Z" fill="#FDFDFD"/>
<path d="M49.8024 6.18348L52.9991 1.42491C52.9945 1.42213 41.1579 -5.55995 31.7168 11.4122C31.6938 11.3714 41.5967 -0.0206511 49.8015 6.18348H49.8024Z" fill="#FDFDFD"/>
<path d="M32.3581 10.2878L20.7002 27.585L20.9041 27.7246L32.5621 10.4275L32.3581 10.2878Z" fill="#FDFDFD"/>
<path d="M20.3365 28.5123C30.4482 14.7224 20.1866 6.89844 20.1866 6.89844L16.9521 11.3955C16.9521 11.3955 24.2774 15.3224 20.3365 28.5123Z" fill="#FDFDFD"/>
<path d="M32.3009 10.4087C22.1892 24.1985 32.5235 31.9929 32.5235 31.9929L35.7579 27.4958C35.7579 27.4958 28.3977 24.0455 32.3009 10.4087Z" fill="#FDFDFD"/>
</g>
<defs>
<clipPath id="clip0_2415_2623">
<rect width="53" height="40" fill="white"/>
</clipPath>
</defs>
</svg>
